<?xml version="1.0" encoding="UTF-8"?>
<svg id="Layer_2" data-name="Layer 2" xmlns="http://www.w3.org/2000/svg" viewBox="0 0 1859.14 279.05">
  <defs>
    <style>
      .cls-1 {
        fill: #fff;
      }
    </style>
  </defs>
  <g id="Layer_1-2" data-name="Layer 1">
    <g>
      <path class="cls-1" d="M1852.25,0v59.71l-6.74-.15c-1.48-2.8-.89-6.9-2.55-9.5-.84-1.32-6.32-4.13-7.36-4.13h-185.45v74.64h131.48c6.6,0,10.73-7.68,9.77-13.77h6.88s0,59.71,0,59.71h-6.88c.97-6.1-3.17-13.78-9.77-13.78h-131.48v81.53h191.2c6.38,0,11.31-7.66,9.76-13.79h8.04v58.57h-8.04c1.25-5.76-2.17-12.63-8.61-12.63h-245.17v-6.88c7.24.8,14.93-2.93,14.93-10.92v-56.84h-128.61c-10.37,17.86-25.27,33.02-36.53,50.17-7.22,10.99-10.12,16.76,6.75,18.09l1.08,6.39h-72.34c-1.75-7.96,5.46-7.16,10.72-10.52,7.99-5.11,14.77-14.36,20.74-21.75,49.43-61.12,93.5-128.9,142.15-190.87,8.84-17.5-5.22-20.64-19.61-22.72l-.12-6.77h299.14c1.03,0,6.51-2.81,7.36-4.13,1.67-2.6,1.08-6.7,2.55-9.5l6.74-.15ZM1612.25,159.62V40.77c0-8.23-9.72-4.63-13.09-.45l-90.26,119.31h103.35Z"/>
      <path class="cls-1" d="M1100.1,13.78v6.88c-5.11.12-12.99.46-13.24,6.99l90.16,162.97,87.9-160.73c3.25-8.26-7.14-9.4-13.25-9.21v-6.9h79.24v6.88c-11.48-.69-13.11,5.65-13.83,15.46-4.99,67.82,3.82,141.72.06,210.18.91,9.16,3.86,13.83,13.76,13.22v6.88s-65.45,0-65.45,0v-6.88c7.33.36,16.08-2.35,16.08-10.92V63.16l-105.07,190.6-105.07-190.6v187.75c0,5.85,10.01,9.41,14.92,8.62v6.88s-63.15,0-63.15,0v-6.88c5.52-.05,11.41-.64,14.05-6.05V26.71c-2.65-5.41-8.54-6-14.05-6.05v-6.88s76.93,0,76.93,0Z"/>
      <path class="cls-1" d="M424.65,10.68c89.51-6.99,173.41,49.93,160.85,147.07-18.69,144.64-255.86,149.39-286.16,11.99-18.64-84.52,42.36-152.59,125.3-159.06ZM431.54,42.83c-132.68,9.24-127.56,190.04,4.2,194.93,53.34,1.98,107.32-29.8,112-86.77,5.8-70.64-48.96-112.84-116.2-108.16Z"/>
      <path class="cls-1" d="M776.04,10.68c89.51-6.99,173.41,49.93,160.85,147.07-18.69,144.64-255.86,149.39-286.16,11.99-18.64-84.52,42.36-152.59,125.3-159.06ZM782.92,42.83c-132.68,9.24-127.56,190.04,4.2,194.93,53.34,1.98,107.32-29.8,112-86.77,5.8-70.64-48.96-112.84-116.2-108.16Z"/>
      <path class="cls-1" d="M64.31,13.78v6.88c-5.67-.56-13.78,2.06-13.78,8.62v204.98h184.31c8.47,0,10.9-10.51,9.76-17.23h8.04v60.87h-8.03c1.16-5.41-2.86-11.48-8.62-11.48H0v-6.88c4.37.15,11.76-1.05,13.27-5.68l-.34-228.31C11.13,21.66,3.96,20.49,0,20.66v-6.88s64.3,0,64.3,0Z"/>
      <path class="cls-1" d="M857.43,136.29c-9.24,10.96-40.42,2.45-43.64,9.81-7.8,17.8,31.92,17.3,39.42,8.35,2.07-2.48-.32-5.95,3.43-5.16l5.76,12.62c-5.75-2.6-9.07,1.79-14.31,3.5-9.92,3.23-22.23,3.54-32.05-.19-18.85-7.18-17.2-28.7,3.59-31.7,6.89-.99,33.37,2.96,31.11-8.63-2.14-10.99-28.53-10.36-36.09-4.34-1.77,1.41-.79,4.39-3.92,3.48l-5.76-12.62c6.45,2.4,11.79-1.49,17.92-2.19,13.86-1.58,39.71,1.64,37.13,21.04-.22,1.67-1.51,4.74-2.6,6.03Z"/>
      <path class="cls-1" d="M723.45,159.61l8.61-11.47c12.79,27.84,63.11,4.41,43.55-22.9-7.49-10.46-30.13-12.06-39.52-4.07-2.94,2.5-1.19,5.77-4.6,5.14l-5.75-12.62c6.73,1.27,13.23-3.65,20.21-4.47,23.79-2.8,50.15,10.39,41.47,38.02-6.4,20.36-33.84,24.47-51.34,17.54-4.48-1.77-7.47-5.81-12.64-5.16Z"/>
    </g>
  </g>
</svg>